# AST/ASF file generated using VICON BodyLanguage
# -----------------------------------------------
:version 1.10
:name VICON
:units
  mass 1.0
  length 0.45
  angle deg
:documentation
   .ast/.asf automatically generated from VICON data using
   VICON BodyBuilder and BodyLanguage model FoxedUp or BRILLIANT.MOD
:root
   order TX TY TZ RX RY RZ
   axis XYZ
   position 0 0 0  
   orientation 0 0 0 
:bonedata
  begin
     id 1 
     name lhipjoint
     direction 0.677091 -0.635792 0.370561 
     length 2.74323 
     axis 0 0 0  XYZ
  end
  begin
     id 2 
     name lfemur
     direction 0.34202 -0.939693 0  
     length 7.44995  
     axis 0 0 20  XYZ
    dof rx ry rz
    limits (-160.0 20.0)
           (-70.0 70.0)
           (-60.0 70.0)
  end
  begin
     id 3 
     name ltibia
     direction 0.34202 -0.939693 0   
     length 7.34467   
     axis 0 0 20   XYZ
    dof rx
    limits (-10.0 170.0)
  end
  begin
     id 4 
     name lfoot
     direction 0.101953 -0.280114 0.954537   
     length 1.72105   
     axis -90 7.62852e-016 20   XYZ
    dof rx rz
    limits (-45.0 90.0)
           (-70.0 20.0)
  end
  begin
     id 5 
     name ltoes
     direction 1.53537e-011 -4.21915e-011 1   
     length 0.865872   
     axis -90 7.62852e-016 20   XYZ
    dof rx
    limits (-90.0 20.0)
  end
  begin
     id 6 
     name rhipjoint
     direction -0.695735 -0.620586 0.361699   
     length 2.81045  
     axis 0 0 0  XYZ 
  end
  begin
     id 7 
     name rfemur
     direction -0.34202 -0.939693 0   
     length 7.29387   
     axis 0 0 -20   XYZ
    dof rx ry rz
    limits (-160.0 20.0)
           (-70.0 70.0)
           (-70.0 60.0)
  end
  begin
     id 8 
     name rtibia
     direction -0.34202 -0.939693 0   
     length 7.44935   
     axis 0 0 -20   XYZ
    dof rx
    limits (-10.0 170.0)
 end
 begin
     id 9 
     name rfoot
     direction -0.104163 -0.286184 0.952496   
     length 1.77731  
     axis -90 -7.62852e-016 -20   XYZ
    dof rx rz
    limits (-45.0 90.0)
           (-20.0 70.0)
  end
  begin
     id 10 
     name rtoes
     direction -1.5355e-011 -4.21888e-011 1   
     length 0.892424   
     axis -90 -7.62852e-016 -20   XYZ
    dof rx
    limits (-90.0 20.0)
  end
  begin
     id 11 
     name lowerback
     direction 0.0100202 0.997226 -0.0737589   
     length 2.16892   
     axis 0 0 0   XYZ
    dof rx ry rz
    limits (-20.0 45.0)
           (-30.0 30.0)
           (-30.0 30.0)
  end
  begin
     id 12 
     name upperback
     direction 0.00432398 0.999988 -0.00215019   
     length 2.17326   
     axis 0 0 0   XYZ
    dof rx ry rz
    limits (-20.0 45.0)
           (-30.0 30.0)
           (-30.0 30.0)
  end
  begin
     id 13 
     name thorax
     direction -0.00195047 0.999485 0.0320434   
     length 2.18139   
     axis 0 0 0   XYZ
    dof rx ry rz
    limits (-20.0 45.0)
           (-30.0 30.0)
           (-30.0 30.0)
  end
  begin
     id 14 
     name lowerneck
     direction 0.00782762 0.986241 0.165128   
     length 1.88415   
     axis 0 0 0   XYZ
    dof rx ry rz
    limits (-20.0 45.0)
           (-30.0 30.0)
           (-30.0 30.0)
  end
  begin
     id 15 
     name upperneck
     direction 0.00988667 0.981098 -0.193258   
     length 1.9242   
     axis 0 0 0   XYZ
    dof rx ry rz
    limits (-20.0 45.0)
           (-30.0 30.0)
           (-30.0 30.0)
  end
  begin
     id 16
     name head
     direction 0.00252199 0.996513 -0.0833958  
     length 1.93887  
     axis 0 0 0   XYZ
    dof rx ry rz
    limits (-20.0 45.0)
           (-30.0 30.0)
           (-30.0 30.0)
  end
  begin
     id 17 
     name lclavicle
     direction 0.929492 0.368193 -0.0218667  
     length 3.5955  
     axis 0 0 0   XYZ
    dof ry rz
    limits (-20.0 10.0)
           (0.0 20.0)
  end
  begin
     id 18 
     name lhumerus
     direction 1 -4.48972e-011 1.41911e-027   
     length 5.2795   
     axis 180 -30 -90   XYZ
    dof rx ry rz
    limits (-60.0 90.0)
           (-90.0 90.0)
           (-90.0 90.0)
  end
  begin
     id 19
     name lradius
     direction 1 -4.48963e-011 7.05772e-027   
     length 3.53504   
     axis 180 -30 -90   XYZ
    dof rx
    limits (-10.0 170.0)
  end
  begin
     id 20
     name lwrist
     direction 1 -4.48957e-011 9.54866e-027   
     length 1.76752   
     axis -7.69462e-015 90 90   XYZ
    dof ry
    limits (-180.0 0.0)
 end
  begin
     id 21 
     name lhand
     direction 1 -4.48979e-011 1.90973e-026   
     length 0.667948   
     axis -1.21857e-014 90 90   XYZ
    dof rx rz
    limits (-90.0 90.0)
           (-45.0 45.0)
  end
  begin
     id 22 
     name lfingers
     direction 1 -4.48987e-011 3.81946e-026   
     length 0.538517   
     axis -2.43714e-014 90 90   XYZ
    dof rx
    limits (0.0 90.0)
  end
  begin
     id 23
     name lthumb
     direction 0.707107 -6.34962e-011 0.707107   
     length 0.773206   
     axis -90 45 2.85299e-015   XYZ
    dof rx rz
    limits (-45.0 45.0)
           (-45.0 45.0)
  end
  begin
     id 24 
     name rclavicle
     direction -0.898763 0.414256 -0.143584   
     length 3.5176  
     axis 0 0 0   XYZ 
    dof ry rz
    limits (-10.0 20.0)
           (-20.0 0.0)
  end
  begin
     id 25 
     name rhumerus
     direction -1 -4.48971e-011 1.129e-027  
     length 5.25035   
     axis 180 30 90   XYZ
    dof rx ry rz
    limits (-90.0 60.0)
           (-90.0 90.0)
           (-90.0 90.0)
  end
  begin
     id 26 
     name rradius
     direction -1 -4.48955e-011 6.34664e-027   
     length 3.58884   
     axis 180 30 90   XYZ
    dof rx
    limits (-10.0 170.0)
  end
  begin
     id 27 
     name rwrist
     direction -1 -4.48966e-011 9.54866e-027   
     length 1.79442   
     axis -7.69462e-015 -90 -90   XYZ
    dof ry
    limits (-180.0 0.0)
  end
  begin
     id 28
     name rhand
     direction -1 -4.48973e-011 1.90973e-026   
     length 0.779235   
     axis -1.21857e-014 -90 -90   XYZ
    dof rx rz
    limits (-90.0 90.0)
           (-45.0 45.0)
  end
  begin
     id 29
     name rfingers
     direction -1 -4.48984e-011 3.81946e-026   
     length 0.62824   
     axis -2.43714e-014 -90 -90   XYZ
    dof rx
    limits (0.0 90.0)
  end
  begin
     id 30
     name rthumb
     direction -0.707107 -6.34968e-011 0.707107   
     length 0.90203   
     axis -90 -45 -2.85299e-015   XYZ
    dof rx rz
    limits (-45.0 45.0)
           (-45.0 45.0)
  end
:hierarchy
  begin
    root lhipjoint rhipjoint lowerback
    lhipjoint lfemur
    lfemur ltibia
    ltibia lfoot
    lfoot ltoes
    rhipjoint rfemur
    rfemur rtibia
    rtibia rfoot
    rfoot rtoes
    lowerback upperback
    upperback thorax
    thorax lowerneck lclavicle rclavicle
    lowerneck upperneck
    upperneck head
    lclavicle lhumerus
    lhumerus lradius
    lradius lwrist
    lwrist lhand lthumb
    lhand lfingers
    rclavicle rhumerus
    rhumerus rradius
    rradius rwrist
    rwrist rhand rthumb
    rhand rfingers
  end

#!OML:ASF I:\Random Stuff\random\construction\7_22_03\Session 2\subj1.ASF
:FULLY-SPECIFIED
:DEGREES
1
root 12.6805 17.4387 -1.04165 2.82044 15.9656 -0.0420601
lowerback 1.87033 1.89105 -3.71279
upperback -4.11806 2.40006 0.611666
thorax -5.50152 1.36677 2.55158
lowerneck -22.7441 2.79374 2.80493
upperneck 27.8013 3.05809 -0.0515771
head 13.1803 1.66773 0.0585054
rclavicle 2.52829e-014 1.63997e-015
rhumerus -37.6528 7.02295 -83.6375
rradius 19.8977
rwrist -23.4772
rhand -21.481 14.5374
rfingers 7.12502
rthumb 4.9099 -15.3857
lclavicle 2.52829e-014 1.63997e-015
lhumerus -34.9411 -11.5798 88.7379
lradius 37.375
lwrist 36.9063
lhand -19.3533 58.4607
lfingers 7.12502
lthumb 6.96412 88.3261
rfemur -8.43183 21.1129 17.0802
rtibia 24.3331
rfoot -14.4609 -20.7245
rtoes -23.2118
lfemur -13.2138 -12.2793 -17.1115
ltibia 28.4821
lfoot -18.7044 6.87975
ltoes -31.8526
2
root 12.6984 17.4341 -1.03619 2.65263 15.6726 -0.37021
lowerback 1.84583 1.8174 -3.49589
upperback -4.07587 2.31934 0.757936
thorax -5.43321 1.3193 2.58971
lowerneck -22.9161 2.89582 2.77334
upperneck 28.0667 3.24482 -0.13907
head 13.3298 1.73289 0.0682146
rclavicle 4.22231e-014 7.77745e-015
rhumerus -36.6618 -0.0242153 -79.3354
rradius 19.7126
rwrist -12.8753
rhand -19.8416 16.5986
rfingers 7.12502
rthumb 6.49273 -13.2818
lclavicle 4.22231e-014 7.77745e-015
lhumerus -33.3571 -9.09696 88.7941
lradius 34.7743
lwrist 34.3742
lhand -19.4507 57.9052
lfingers 7.12502
lthumb 6.87007 87.7737
rfemur -8.05694 22.197 17.4664
rtibia 23.8278
rfoot -14.1625 -21.3997
rtoes -22.8318
lfemur -13.198 -12.4758 -16.8715
ltibia 28.9076
lfoot -19.0567 7.39029
ltoes -31.6876
3
root 12.7134 17.4315 -1.03055 2.43893 15.3731 -0.880013
lowerback 1.81823 1.74545 -2.92233
upperback -4.01526 2.25164 0.801111
thorax -5.3241 1.26026 2.32008
lowerneck -22.9569 3.03238 2.85081
upperneck 28.1005 3.39068 -0.0779887
head 13.3553 1.81308 0.106544
rclavicle 5.73866e-014 1.55549e-014
rhumerus -36.4731 -8.18747 -74.7869
rradius 20.413
rwrist -0.718746
rhand -16.8862 19.4751
rfingers 7.12502
rthumb 9.34516 -10.2978
lclavicle 5.73866e-014 1.55549e-014
lhumerus -32.7147 -5.8001 88.551
lradius 33.1182
lwrist 30.9058
lhand -19.5894 57.2814
lfingers 7.12502
lthumb 6.73617 87.1543
rfemur -7.72605 23.1429 18.0544
rtibia 23.3663
rfoot -13.9205 -21.9497
rtoes -22.3839
lfemur -13.1793 -12.4691 -16.4134
ltibia 29.2801
lfoot -19.3699 7.7345
ltoes -31.5903
4
root 12.7266 17.4289 -1.02621 2.27338 15.0559 -1.35361
lowerback 1.75973 1.67722 -2.10424
upperback -3.94985 2.18955 0.632199
thorax -5.17513 1.18954 1.69422
lowerneck -22.7862 3.17713 3.13117
upperneck 27.8129 3.47132 -0.0162776
head 13.2079 1.887 0.0924675
rclavicle 8.71671e-014 1.69961e-014
rhumerus -37.1254 -14.718 -71.5443
rradius 22.1792
rwrist 9.32242
rhand -14.3405 22.2639
rfingers 7.12502
rthumb 11.8008 -7.38362
lclavicle 8.71671e-014 1.69961e-014
lhumerus -32.9386 -6.02764 87.9969
lradius 32.909
lwrist 30.8395
lhand -19.6846 57.2569
lfingers 7.12502
lthumb 6.64433 87.1327
rfemur -7.50623 23.7164 18.5712
rtibia 23.0104
rfoot -13.7182 -22.2078
rtoes -22.3534
lfemur -13.1656 -12.5999 -15.9846
ltibia 29.5833
lfoot -19.6642 8.2494
ltoes -31.3878
5
root 12.7399 17.4263 -1.0266 2.36776 14.7624 -1.35788
lowerback 1.62497 1.59416 -1.72747
upperback -3.93533 2.08374 0.344652
thorax -5.05117 1.11433 1.19716
lowerneck -22.6845 3.2858 3.37742
upperneck 27.6351 3.50986 0.0567837
head 13.1193 1.93999 0.0830181
rclavicle 1.32689e-014 4.37326e-015
rhumerus -37.5464 -12.6174 -73.313
rradius 24.6556
rwrist 7.02981
rhand -14.1934 21.8411
rfingers 7.12502
rthumb 11.9426 -7.79828
lclavicle 1.32689e-014 4.37326e-015
lhumerus -33.1504 -6.25434 87.4768
lradius 32.5754
lwrist 30.9783
lhand -19.6657 57.3118
lfingers 7.12502
lthumb 6.66251 87.187
rfemur -7.53404 23.866 18.4759
rtibia 22.7711
rfoot -13.5075 -22.1542
rtoes -23.0661
lfemur -13.2596 -13.017 -16.0534
ltibia 29.8063
lfoot -19.8934 8.81177
ltoes -30.2653
6
root 12.7507 17.4209 -1.02707 2.36678 14.4573 -1.41306
lowerback 1.62362 1.52755 -1.74905
upperback -3.93318 1.9954 0.385812
thorax -5.04732 1.0721 1.25739
lowerneck -22.6699 3.34036 3.41611
upperneck 27.6286 3.59217 -0.00157309
head 13.1174 1.97139 0.0681776
rclavicle 1.00883e-014 2.5842e-015
rhumerus -37.7675 -11.6641 -73.8763
rradius 26.5478
rwrist 6.84062
rhand -13.2539 21.6032
rfingers 7.12502
rthumb 12.8484 -7.98139
lclavicle 1.00883e-014 2.5842e-015
lhumerus -33.4579 -6.07954 87.3663
lradius 32.1962
lwrist 31.1285
lhand -19.5225 57.3871
lfingers 7.12502
lthumb 6.80074 87.2578
rfemur -7.52458 24.1826 18.4906
rtibia 22.6669
rfoot -13.3947 -22.2343
rtoes -23.5285
lfemur -13.225 -13.3812 -16.0821
ltibia 29.9533
lfoot -20.0019 9.13099
ltoes -28.8115
7
root 12.7599 17.4151 -1.02596 2.36184 14.1354 -1.44153
lowerback 1.6111 1.48488 -1.76993
upperback -3.93217 1.93846 0.407753
thorax -5.03857 1.04499 1.29568
lowerneck -22.5881 3.37376 3.51055
upperneck 27.6454 3.64836 -0.127385
head 13.1139 1.98844 0.012259
rclavicle -1.06101e-014 3.18055e-015
rhumerus -37.7489 -11.2073 -74.3362
rradius 27.9486
rwrist 6.68965
rhand -12.8959 21.6157
rfingers 7.12502
rthumb 13.1935 -7.94682
lclavicle -1.06101e-014 3.18055e-015
lhumerus -33.8179 -5.87166 87.2675
lradius 31.878
lwrist 31.3805
lhand -19.4906 57.5595
lfingers 7.12502
lthumb 6.83159 87.4292
rfemur -7.54692 24.5703 18.4895
rtibia 22.7107
rfoot -13.5096 -22.3325
rtoes -23.3226
lfemur -13.1206 -13.7929 -16.1454
ltibia 30.0095
lfoot -20.0208 9.74381
ltoes -28.6171
8
root 12.7698 17.4104 -1.02667 2.41797 13.7748 -1.40895
lowerback 1.54239 1.47435 -1.80265
upperback -3.93216 1.92387 0.402167
thorax -4.99979 1.03861 1.31097
lowerneck -22.4461 3.38107 3.56461
upperneck 27.6023 3.66514 -0.194599
head 13.0703 1.99242 -0.0227978
rclavicle 3.17434e-014 6.16232e-015
rhumerus -37.621 -10.941 -74.805
rradius 29.1159
rwrist 6.27806
rhand -12.9529 21.7058
rfingers 7.12502
rthumb 13.1386 -7.86032
lclavicle 3.17434e-014 6.16232e-015
lhumerus -34.2169 -5.8626 87.2703
lradius 31.618
lwrist 31.8787
lhand -19.6077 57.8331
lfingers 7.12502
lthumb 6.71854 87.7066
rfemur -7.7243 24.6543 18.3449
rtibia 22.8184
rfoot -13.6315 -22.1127
rtoes -23.5222
lfemur -13.031 -14.4583 -16.2822
ltibia 30.0264
lfoot -20.0675 10.8849
ltoes -29.2557
9
root 12.7807 17.4074 -1.02932 2.47672 13.3585 -1.33512
lowerback 1.49033 1.46424 -1.86947
upperback -3.91189 1.90773 0.386164
thorax -4.95011 1.03222 1.33452
lowerneck -22.3485 3.4096 3.6603
upperneck 27.5421 3.69655 -0.269629
head 13.0305 2.00568 -0.0646255
rclavicle -5.47031e-014 -2.5842e-015
rhumerus -37.5788 -10.4986 -75.2787
rradius 30.3472
rwrist 5.8137
rhand -12.92 21.7948
rfingers 7.12502
rthumb 13.1703 -7.76921
lclavicle -5.47031e-014 -2.5842e-015
lhumerus -34.6411 -5.95759 87.3329
lradius 31.3599
lwrist 32.4487
lhand -19.6191 57.8588
lfingers 7.12502
lthumb 6.70749 87.7325
rfemur -8.01385 24.254 18.1017
rtibia 22.9949
rfoot -13.7514 -21.4254
rtoes -24.3991
lfemur -12.8979 -15.1619 -16.473
ltibia 29.9848
lfoot -20.1346 12.0964
ltoes -29.7885
